<?xml version="1.0" encoding="utf-8"?>
<!-- Generator: Adobe Illustrator 24.0.3, SVG Export Plug-In . SVG Version: 6.00 Build 0)  -->
<svg version="1.1" xmlns="http://www.w3.org/2000/svg" xmlns:xlink="http://www.w3.org/1999/xlink" x="0px" y="0px"
	 viewBox="0 0 783 138" style="enable-background:new 0 0 783 138;" xml:space="preserve">
<style type="text/css">
	.st0{display:none;}
	.st1{display:inline;fill:#FFFFFF;}
	.st2{display:inline;}
	.st3{fill:#D84759;}
	.st4{fill:#FFFFFF;}
	.st5{fill:#1C1C1C;}
	.st6{display:inline;fill:#1B1B1B;}
	.st7{font-family:'Raleway-ExtraBold';}
	.st8{font-size:37.5663px;}
	.st9{fill:#FDD51E;}
	.st10{fill:#F9AF03;}
	.st11{clip-path:url(#SVGID_42_);fill:#F9AF03;}
	.st12{clip-path:url(#SVGID_44_);fill:#F9AF03;}
	.st13{clip-path:url(#SVGID_46_);fill:#F9AF03;}
	.st14{clip-path:url(#SVGID_48_);fill:#F9AF03;}
	.st15{clip-path:url(#SVGID_50_);fill:#F9AF03;}
	.st16{clip-path:url(#SVGID_52_);fill:#F9AF03;}
	.st17{clip-path:url(#SVGID_54_);fill:#F9AF03;}
	.st18{clip-path:url(#SVGID_56_);fill:#F9AF03;}
	.st19{display:inline;fill:#D84759;}
	.st20{fill:none;stroke:#D3D9EE;stroke-width:2;stroke-miterlimit:10;}
	.st21{clip-path:url(#SVGID_58_);fill:#F9AF03;}
	.st22{clip-path:url(#SVGID_60_);fill:#F9AF03;}
	.st23{fill:#F3F7FB;}
	.st24{fill:#D3D9EE;}
	.st25{fill:none;stroke:#FFFFFF;stroke-linecap:round;stroke-linejoin:round;stroke-miterlimit:10;}
	.st26{fill:none;}
	.st27{opacity:0.5;}
	.st28{display:inline;fill:#F3F7FB;}
	.st29{display:inline;fill:#D3D9EE;}
	.st30{display:inline;fill:none;stroke:#FFFFFF;stroke-linecap:round;stroke-linejoin:round;stroke-miterlimit:10;}
	.st31{display:inline;fill:none;}
	.st32{display:inline;opacity:0.5;}
	.st33{fill:#1B1B1B;}
	.st34{clip-path:url(#SVGID_62_);fill:#F9AF03;}
	.st35{clip-path:url(#SVGID_64_);fill:#F9AF03;}
	.st36{clip-path:url(#SVGID_66_);fill:#F9AF03;}
	.st37{clip-path:url(#SVGID_68_);fill:#F9AF03;}
	.st38{clip-path:url(#SVGID_70_);fill:#F9AF03;}
	.st39{clip-path:url(#SVGID_72_);fill:#F9AF03;}
	.st40{clip-path:url(#SVGID_74_);fill:#F9AF03;}
	.st41{clip-path:url(#SVGID_76_);fill:#F9AF03;}
	.st42{clip-path:url(#SVGID_78_);fill:#F9AF03;}
	.st43{clip-path:url(#SVGID_80_);fill:#F9AF03;}
</style>
<g id="TEXTE" class="st0">
	<path class="st1" d="M766.5,138H16.5C7.4,138,0,130.6,0,121.5V16.5C0,7.4,7.4,0,16.5,0h750.1c9.1,0,16.5,7.4,16.5,16.5v105.1
		C783,130.6,775.6,138,766.5,138z"/>
	<g class="st2">
		<path class="st3" d="M593.1,78.3h-3.1V46.1c0-0.5-0.4-1-1-1l-16.6,5c-0.8,0.2-1,0.9-1,1.4v9.5c0,0.5,0.4,1,1,1l3-0.9v17.1h-3.1
			c-0.5,0-1,0.4-1,1v10c0,0.5,0.4,1,1,1h20.9c0.5,0,1-0.4,1-1v-10C594.1,78.8,593.6,78.3,593.1,78.3z"/>
		<path class="st3" d="M699.9,90.4c3.9,0.4,8-0.8,11.6-2c8.5-2.9,16.6-7.5,23.8-12.9c3.1-2.4,6.2-4.9,8.8-7.9
			c1.9-2.2,3.8-4.8,3.9-7.8c0.2-3.3-5-3.3-5.2,0c0,0,0,0.1,0,0.1c0,0,0,0,0,0.1c-0.1,0.3-0.1,0.5-0.2,0.8c0,0,0,0,0,0.1
			c0,0.1-0.1,0.2-0.1,0.2c-0.2,0.3-0.4,0.7-0.5,1c-0.2,0.3-0.4,0.6-0.6,0.9c-0.1,0.1-0.2,0.3-0.3,0.4c0,0,0,0-0.1,0.1
			c-0.6,0.7-1.2,1.4-1.8,2c-3,3.2-6.1,5.5-9.6,7.9c-4,2.8-8.2,5.2-12.6,7.3c-3.7,1.8-7.7,3.4-12,4.3c-0.4,0.1-0.9,0.2-1.3,0.2
			c0,0-0.2,0-0.3,0c-0.2,0-0.3,0-0.5,0.1c-0.9,0.1-1.8,0.1-2.7,0.1c-0.1,0-0.3,0-0.4,0c-0.1,0-0.3,0-0.4-0.1c-0.3-0.1-0.7-0.2-1-0.3
			c0.3,0.1-0.5-0.3-0.7-0.4c-0.1,0-0.1-0.1-0.2-0.1c0.1,0-0.3-0.2-0.4-0.3c-0.1-0.1-0.5-0.5-0.5-0.6c-0.1-0.2-0.2-0.3-0.3-0.5
			c3.6-2.5,7-5.5,10-8.6c3.5-3.7,6.8-7.8,9.1-12.3c2.2-4.4,3.9-10.5,0.3-14.7c-3.8-4.3-10-1.2-13.5,1.7c-3.5,2.9-6,6.9-7.8,11
			c-1.8,3.9-3.2,8.1-3.9,12.4c-0.4,2.7-0.7,5.7-0.3,8.4c-1.5,0.9-3.1,1.8-4.8,2.5c-1.9,0.8-4.3,1.5-6.5,1.9c0.1,0-0.5,0.1-0.5,0.1
			c-0.3,0-0.5,0-0.8,0.1c-0.5,0-1,0-1.5,0c-0.1,0-0.3,0-0.4,0c0.1,0-0.3,0-0.4-0.1c-0.4-0.1-0.8-0.2-1.2-0.3
			c0.2,0.1-0.6-0.3-0.7-0.4c-0.1,0-0.1-0.1-0.2-0.1c-0.1-0.1-0.2-0.1-0.2-0.2c-0.2-0.2-0.4-0.4-0.6-0.6c0-0.1-0.1-0.1-0.1-0.2
			c-0.1-0.2-0.2-0.4-0.3-0.6c4-2.8,7.8-6,11-9.6c4-4.5,7.7-9.7,9.9-15.3c1.8-4.6,1.3-10.4-3.8-12.4c-2.3-0.9-4.9-0.2-7,0.8
			c-2.9,1.3-5.3,3.7-7.3,6.1c-2.6,3.1-4.4,6.8-5.9,10.5c-1.6,4-2.7,8.2-3.1,12.5c-0.1,1.7-0.1,3.4,0.1,5.1c-1.9,1.2-4,2.2-6,3.1
			c-0.1,0.1-0.7,0.3-0.8,0.3c-0.3,0.1-0.5,0.2-0.8,0.3c-0.2,0.1-0.5,0.2-0.7,0.2c-0.5,0.1-1,0.3-1.5,0.4c-0.2,0.1-0.5,0.1-0.7,0.1
			c0,0-0.3,0.1-0.4,0.1c-0.8,0.1-1.6,0.1-2.4,0c0,0,0,0-0.1,0c-0.2,0-0.3-0.1-0.5-0.1c-0.2-0.1-0.4-0.1-0.7-0.2
			c0.1,0-0.5-0.2-0.7-0.3c-0.1-0.1-0.3-0.2-0.4-0.2c0,0-0.1,0-0.1-0.1c-0.2-0.2-0.4-0.4-0.6-0.7c0,0,0,0,0-0.1
			c-0.1-0.1-0.1-0.2-0.2-0.3c-0.2-0.3-0.3-0.5-0.5-0.8c0-0.1-0.1-0.1-0.1-0.2c0-0.1-0.1-0.4-0.2-0.4c0,0,0-0.1,0-0.1
			c6.7-4.2,12.3-9.9,16.5-16.7c2.8-4.6,6.2-11,3.4-16.4c-2.5-4.9-8.8-3.8-12.6-1.3c-7,4.6-10.5,12.8-12.2,20.6
			c-0.7,3.3-1.3,7.3-0.9,11.1c-1.2,0.6-2.4,1.2-3.7,1.7c-1.3,0.6-1.6,2.4-0.9,3.5c0.8,1.3,2.2,1.5,3.5,0.9c0.8-0.3,1.6-0.7,2.3-1.1
			c0.6,1.4,1.5,2.6,2.6,3.7c3.4,3.1,8.2,2.9,12.4,1.7c3-0.9,5.9-2.3,8.7-3.9c0.1,0.2,0.2,0.4,0.4,0.6c2.4,3.5,6.5,4.6,10.6,4.2
			c4.8-0.4,9.4-2.3,13.6-4.7C693.6,88.5,696.4,90.1,699.9,90.4z M647.8,72.2c0-0.2,0.1-0.4,0.1-0.5c0.1-0.4,0.1-0.9,0.2-1.3
			c0.2-0.9,0.4-1.9,0.6-2.8c0.4-1.8,1-3.5,1.7-5.2c0.1-0.3,0.3-0.7,0.4-1c0,0,0.3-0.7,0.4-0.8c0.3-0.7,0.7-1.5,1.1-2.2
			c0.3-0.6,0.7-1.2,1.1-1.8c0.1-0.2,0.2-0.3,0.3-0.5c0,0,0.4-0.5,0.4-0.5c0.4-0.5,0.8-0.9,1.2-1.3c1.8-1.9,3.9-3.5,6.2-4
			c0,0,0,0,0.1,0c0,0,0.1,0,0.2,0c0.2,0,0.4,0,0.7,0c0,0,0,0,0,0c0,0,0.1,0,0.1,0c0.1,0,0.2,0.1,0.3,0.1c-0.2,0,0.2,0.1,0.3,0.2
			c0,0,0,0,0,0c0,0,0,0,0,0c0,0,0.2,0.2,0.2,0.3c0.1,0.1,0.1,0.2,0.2,0.3c0,0,0.1,0.3,0.2,0.4c0.1,0.2,0.1,0.4,0.2,0.7
			c0,0,0,0,0,0.1c0,0,0,0.1,0,0.2c0,0.3,0,0.5,0,0.8c0,1.1-0.4,2.3-0.9,3.6c-1.1,3-3,5.8-4.8,8.4c-1.7,2.4-3.6,4.6-5.8,6.6
			c-1.6,1.5-3.3,2.9-5.1,4.1c0-1.1,0.1-2.3,0.2-3.4C647.7,72.5,647.8,72.3,647.8,72.2z M649.1,83.3
			C649.1,83.2,649.1,83.2,649.1,83.3L649.1,83.3z M670.8,74.9c0-0.2,0-0.4,0.1-0.5c0,0,0.1-0.6,0.1-0.7c0.3-2.1,0.8-4.1,1.5-6.1
			c1.2-3.8,2.6-6.9,4.9-10.4c0.2-0.3,0.5-0.7,0.7-1c0,0,0-0.1,0.1-0.1c0.2-0.3,0.5-0.6,0.7-0.8c1-1.2,2.2-2.4,3.5-3.3
			c1-0.7,1.9-1.2,2.8-1.5c0.2-0.1,0.5-0.1,0.7-0.2c0,0,0.1,0,0.1,0c0,0,0.1,0,0.2,0c0.2,0,0.4,0,0.7,0c0,0,0.1,0,0.1,0
			c0,0,0.1,0,0.2,0.1c0.1,0,0.2,0.1,0.3,0.1c0.1,0.1,0.2,0.1,0.3,0.2c0,0,0,0,0.1,0.1c0,0,0.2,0.2,0.2,0.2c0.1,0.1,0.1,0.2,0.2,0.3
			c0,0,0,0,0,0.1c0,0,0,0.1,0,0.1c0.1,0.2,0.1,0.4,0.2,0.6c0,0.1,0,0.1,0,0.1c0,0.1,0,0.2,0,0.4c0.1,2.3-1.1,4.8-2.3,7
			c-3.8,7-9.2,13-15.5,17.6c0-0.3,0-0.6,0-0.9C670.7,75.9,670.7,75.4,670.8,74.9z M695.1,76.1c0-0.5,0.1-0.9,0.1-1.4
			c0,0,0-0.4,0.1-0.5c0-0.2,0.1-0.4,0.1-0.5c0.2-1.1,0.4-2.1,0.6-3.2c0.5-2.1,1.2-4.1,1.9-6.1c0.1-0.2,0.2-0.5,0.3-0.7
			c0-0.1,0-0.1,0.1-0.1c0,0,0-0.1,0.1-0.2c0.2-0.5,0.4-0.9,0.6-1.3c0.4-0.9,0.9-1.8,1.4-2.7c0.4-0.8,0.9-1.5,1.4-2.2
			c0.2-0.3,0.5-0.7,0.7-1c0,0,0-0.1,0.1-0.1c0.3-0.4,0.7-0.8,1-1.2c1.7-2,4-3.9,6.2-4.5c0,0,0.4-0.1,0.5-0.1c0.2,0,0.3,0,0.5,0
			c0.1,0,0.3,0,0.4,0c0.1,0,0.2,0.1,0.4,0.1c0,0,0,0,0,0c0,0,0,0,0.1,0c0.1,0,0.2,0.1,0.3,0.2c0.1,0.1,0.2,0.2,0.2,0.2c0,0,0,0,0,0
			c0.1,0.1,0.1,0.2,0.2,0.3c0,0,0.1,0.3,0.2,0.3c0,0.1,0.1,0.3,0.1,0.4c0.1,0.2,0.1,0.4,0.1,0.6c-0.1-0.4,0,0.4,0,0.4
			c0.1,1.3-0.2,2.2-0.6,3.5c-0.7,2.2-1.8,4.2-3,6.1c-2.8,4.4-6.3,8.2-10.3,11.7c-1.2,1.1-2.4,2.1-3.7,3C695,77,695,76.5,695.1,76.1z
			"/>
		<path class="st3" d="M582.6,43.7c4,0,7.3-3.3,7.3-7.3c0-4-3.3-7.3-7.3-7.3c-4,0-7.3,3.3-7.3,7.3C575.3,40.4,578.6,43.7,582.6,43.7
			z"/>
		<path class="st3" d="M565.3,45.2h-7.7c0-0.3,0-0.5,0-0.8v-9.9c0,0,0.2-2.8-2.7-1.8c-3,1-9.8,3-9.8,3s-1.6,0.2-1.6,2.3
			c0,1.7,0,2.7,0.1,7.1H540c-0.5,0-1,0.4-1,1v10c0,0.5,0.4,1,1,1h3.7c0,5.3,0,12.4,0,21.8c0,0-0.9,17.7,21.4,9c0,0,1.1-0.6,1.2-1.6
			v-9.7c0,0,0-1.5-1.4-0.8c0,0-7.3,3.3-7.3-1.4c0-3.8,0-4,0-17.2h7.7c0.5,0,1-0.4,1-1v-10C566.3,45.6,565.9,45.2,565.3,45.2z"/>
		<path class="st3" d="M620.3,45.2c-2.4,0-4.7,0.5-6.8,1.4v-0.4c0-0.5-0.4-1-1-1h-16.9c-0.5,0-1,0.4-1,1v10c0,0.5,0.4,1,1,1h3.2
			v38.8h-3.2c-0.5,0-1,0.4-1,1v10c0,0.5,0.4,1,1,1h21c0.5,0,1-0.4,1-1v-10c0-0.5-0.4-1-1-1h-3.1v-7c2.1,0.9,4.4,1.4,6.8,1.4
			c10.9,0,19.7-10.1,19.7-22.6S631.2,45.2,620.3,45.2z M620.5,78.6c-3.9,0-7.1-4.9-7-10.9c0-6,3.2-10.9,7.1-10.8
			c3.9,0,7.1,4.9,7,10.9C627.6,73.8,624.4,78.6,620.5,78.6z"/>
		<path class="st3" d="M699.4,102.6c-1.6,0-2.5,1.4-2.5,2.6c0,1.2,1.1,2.4,2.5,2.4c1.7,0,2.6-1.1,2.6-2.4
			C702,104,701,102.6,699.4,102.6z"/>
		<path class="st3" d="M709.3,104.5c-1.4,0-2.3-1.2-2.3-2.6c0-1.5,0.6-2.9,2-2.9c1,0,1.4,1.3,1.4,2.4h3.3v-5.1H711l-0.4,1.1
			c-0.4-0.4-1.3-1.3-2.8-1.3c-2.9,0-5.5,1.8-5.5,5.7c0,4,2.9,6,6.2,6c2.4,0,4.4-1.1,5.5-2.3l-2-2.3
			C711.3,104,710.5,104.5,709.3,104.5z"/>
		<path class="st3" d="M720.6,96c-3.1,0-6.1,2.1-6.1,5.8c0,4,3,5.9,6.3,5.9c3.4,0,6.2-2.1,6.1-5.9C726.8,98.2,724.2,96.1,720.6,96z
			 M720.7,104.9c-0.9,0-1.7-1.2-1.7-3c0-1.6,0.7-2.9,1.5-2.9c1.1,0,1.6,1.3,1.6,3C722.3,103.6,721.7,104.9,720.7,104.9z"/>
		<path class="st3" d="M746,101.4c0-2.7-0.6-5.4-4.2-5.4c-1.5,0-2.6,0.8-3.3,1.6c-0.4-0.5-1.1-1.6-3.3-1.6c-1.4,0-2.4,1.2-2.8,1.6
			l-0.5-1.3h-4.2v3h0.9v5.3h-0.9v2.9h6.7v-2.9H733v-4c0-0.9,0.3-1.3,1-1.3c0.9,0,0.9,0.7,0.9,2.6v5.7h5.8v-3h-1.3v-3.6
			c0-1,0.2-1.6,1.2-1.6c1.1,0,0.9,1.7,0.9,2.8v5.5h5.7v-3H746V101.4z"/>
	</g>
	<text transform="matrix(1 0 0 1 181.3662 81.6562)" class="st6 st7 st8">Support us on</text>
	<g id="Calque_5_15_" class="st2">
		<g>
			<path class="st3" d="M140.4,86.1l-96.1,18.7c-5.7,1.1-11.2-2.6-12.3-8.3l-9.2-47.3c-1.1-5.7,2.6-11.2,8.3-12.3l96.1-18.7
				c5.7-1.1,11.2,2.6,12.3,8.3l9.2,47.3C149.8,79.5,146.1,85,140.4,86.1z"/>
			<g>
				<path class="st4" d="M43,57.2l-1-4.9l9.3-5.1l1.6,8.1l5.1-1l1.4,7l-5.1,1l1.9,9.6c0.4,1.8,0.5,4.4,2.6,4
					c0.7-0.1,2.3-0.9,3.2-1.6l1.3,6.9c-1.5,1-5.1,2.1-6.3,2.3c-8.1,1.6-9.2-2.8-10.7-9.6l-1.9-9.6l-2.9,0.6l-1.4-7L43,57.2z"/>
				<path class="st4" d="M67.7,80.3l-1.4-7l2.3-0.4l-2.5-12.9l-2.3,0.4l-1.4-7l12.5-2.4l3.9,19.8l2.6-0.5l1.4,7L67.7,80.3z
					 M67.2,38.6c3.7-0.7,6.5,1.9,7,4.3c0.6,3-1,5.8-4.8,6.6c-3.4,0.7-6.4-1.7-6.9-4.3C61.9,42.7,63.4,39.3,67.2,38.6z"/>
				<path class="st4" d="M87.3,80.5l-4.6-23.7l-2.3,0.4l-1.4-7.1l12.3-2.4l1.3,1.7c0.9-0.9,2.8-3,6.1-3.6c8.4-1.6,13.9,4,15.4,11.6
					c1.7,8.5-2.6,14.9-9.6,16.2c-4.5,0.9-7-0.5-7.4-0.7l1.1,5.4l2.9-0.6l1.4,7L86.4,88l-1.4-7L87.3,80.5z M97.4,54
					c-2.1,0.4-3.5,3.4-2.5,7.6c0.7,3.7,3.1,6.1,5.1,5.7c2.3-0.4,3.3-3.4,2.5-7.5C102,56.6,99.8,53.5,97.4,54z"/>
				<path class="st4" d="M122.7,57.9c3.8-0.7,6.9,1.4,7.5,4.4c0.6,3-1.4,6-5.3,6.8c-3.5,0.7-6.7-1.6-7.2-4.3
					C117.2,62.1,118.8,58.7,122.7,57.9z M111.7,32.7l12.9-2.5l2,10.2l-0.2,14.1l-7.1,1.4l-5.5-13L111.7,32.7z"/>
			</g>
			<g>
				<path id="path4109_15_" class="st4" d="M114.3,76c0.2,0.6,0.4,1.2,0.6,1.9l0.1,0.3l-0.3,0.1c-0.6,0.2-1.2,0.4-1.8,0.6
					c2,6.3,4,12.6,6.1,18.9L119,98l-0.3,0.1c-0.5,0.2-1,0.3-1.6,0.5l-0.3,0.1l-0.1-0.3c-0.2-0.6-0.4-1.2-0.6-1.8
					c-2.1,0.7-4.3,1.4-6.4,2.1c0.7,2.1,1.4,4.3,2.1,6.4c0.6-0.2,1.3-0.4,1.9-0.6l0.3-0.1l0.1,0.4c0.1,0.6,0.4,1.2,0.6,1.9
					c0.6-0.2,1.2-0.3,1.8-0.5l0.2-0.1l0.1,0.2c0.5,1.3,0.9,2.6,1.4,3.9c0.6-0.2,1.2-0.4,1.9-0.6l0.3-0.1l0.1,0.3
					c0.4,1.3,0.9,2.6,1.3,3.9c0.6-0.2,1.3-0.4,1.9-0.6l0.3-0.1l0.1,0.3c0.3,1.4,0.8,2.7,1.3,4c0.6-0.2,1.2-0.4,1.8-0.6l0.3-0.1
					l0.1,0.3c0.7,2,1.3,4.1,2,6.1c3.5-1.1,7.1-2.2,10.6-3.3c3.6-1.2,7.2-2.3,10.8-3.5c-0.7-2-1.2-4.1-1.9-6.1l-0.1-0.3l0.3-0.1
					c0.6-0.2,1.2-0.4,1.8-0.6c-0.6-2-1.3-4.1-1.9-6.1l-0.1-0.2l0.2-0.1c0.6-0.2,1.2-0.5,1.8-0.7c-0.7-2.3-1.5-4.5-2.1-6.8l0,0l0,0
					c-0.9-2.7-1.8-5.4-2.7-8.1c-0.6,0.2-1.2,0.4-1.8,0.6l-0.3,0.1l-0.1-0.3c-0.2-0.6-0.4-1.2-0.6-1.8c-0.6,0.2-1.2,0.4-1.9,0.6
					l-0.2,0.1l-0.1-0.2c-0.2-0.6-0.4-1.2-0.6-1.9c-1.3,0.4-2.6,0.9-4,1.3l-0.3,0.1l-0.1-0.3c-0.2-0.6-0.4-1.2-0.6-1.8
					c-2.1,0.5-4.1,1.3-6.1,1.9l-0.3,0.1L129,85c-0.2-0.6-0.4-1.2-0.6-1.8c-1.3,0.4-2.6,0.9-4,1.3l-0.3,0.1l-0.1-0.3
					c-0.9-2.7-1.8-5.5-2.7-8.2c-0.4,0.1-0.7,0.2-1.1,0.3c-0.3,0.1-0.5,0.2-0.8,0.3l-0.3,0.1l-0.1-0.3c-0.2-0.6-0.4-1.3-0.7-1.9
					C117.1,75.1,115.7,75.5,114.3,76L114.3,76z"/>
				<path id="path3016_15_" class="st5" d="M114.3,76c1.4-0.4,2.8-0.9,4.2-1.4c0.3,0.7,0.5,1.4,0.7,2.1c-1.4,0.5-2.8,0.9-4.3,1.4
					C114.7,77.4,114.5,76.7,114.3,76z"/>
				<path id="path3018_15_" class="st5" d="M112.9,78.8c0.7-0.2,1.4-0.5,2.1-0.7c2.5,7.8,5.1,15.7,7.6,23.5
					c-0.7,0.2-1.4,0.5-2.1,0.7c-0.2-0.7-0.5-1.4-0.7-2.1c-0.7,0.2-1.4,0.4-2.1,0.7c-0.2-0.7-0.5-1.4-0.7-2.1
					c0.7-0.2,1.4-0.5,2.1-0.7C116.9,91.6,114.9,85.2,112.9,78.8L112.9,78.8z"/>
				<path id="path3020_15_" class="st5" d="M119.2,76.8c0.7-0.2,1.4-0.5,2.1-0.7c0.9,2.8,1.8,5.7,2.8,8.5c1.4-0.4,2.8-0.9,4.2-1.3
					c0.2,0.7,0.5,1.4,0.7,2.1c2.1-0.7,4.2-1.4,6.4-2c0.2,0.7,0.4,1.4,0.7,2.1c1.4-0.4,2.8-0.9,4.3-1.4c0.2,0.7,0.4,1.4,0.7,2.1
					c0.7-0.2,1.4-0.4,2.1-0.6c0.2,0.7,0.4,1.4,0.7,2.1c0.7-0.2,1.4-0.4,2.1-0.7c0.9,2.7,1.7,5.5,2.7,8.1c0.7,2.3,1.4,4.5,2.1,6.8
					c-0.7,0.2-1.4,0.5-2.1,0.8c0.7,2.1,1.4,4.2,2,6.3c-0.7,0.2-1.4,0.5-2.1,0.7c-0.8-2.1-1.4-4.3-2.1-6.4c0.7-0.2,1.4-0.5,2.1-0.7
					c-1.6-5-3.2-9.9-4.8-14.9c-0.7,0.2-1.4,0.5-2.1,0.7c-0.3-0.7-0.4-1.4-0.7-2.1c-0.7,0.1-1.4,0.4-2.1,0.6c0.7,2.1,1.4,4.3,2,6.4
					c-0.7,0.2-1.4,0.5-2.1,0.7c-1-2.8-1.8-5.7-2.8-8.5c-1.4,0.5-2.9,0.9-4.3,1.4c0.7,2.1,1.4,4.3,2.1,6.4c-0.7,0.2-1.4,0.5-2.1,0.7
					c-0.9-2.8-1.8-5.7-2.7-8.5c-1.4,0.5-2.9,0.9-4.3,1.4c0.9,2.8,1.8,5.7,2.7,8.5c-0.7,0.2-1.4,0.5-2.1,0.7
					C123.3,89.6,121.3,83.2,119.2,76.8L119.2,76.8z"/>
				<path id="path3026_15_" class="st5" d="M109.8,98.6c2.1-0.7,4.3-1.4,6.4-2.1c0.2,0.7,0.5,1.4,0.7,2.1c-1.4,0.5-2.8,0.9-4.2,1.4
					c0.4,1.4,1,2.8,1.3,4.2c-0.7,0.3-1.4,0.5-2.1,0.7C111.1,102.9,110.5,100.8,109.8,98.6z"/>
				<path id="path3030_15_" class="st5" d="M114.1,104.3c0.7-0.3,1.4-0.5,2.1-0.7c0.2,0.7,0.5,1.4,0.7,2.1c0.7-0.2,1.4-0.5,2.1-0.7
					c0.5,1.4,0.9,2.8,1.4,4.3c0.7-0.2,1.4-0.5,2.1-0.7c0.5,1.4,1,2.8,1.3,4.3c-0.7,0.3-1.4,0.5-2.1,0.7c-0.5-1.4-0.9-2.8-1.4-4.2
					c-0.7,0.2-1.4,0.4-2.1,0.6c-0.5-1.4-0.9-2.8-1.4-4.2c-0.7,0.2-1.4,0.4-2.1,0.6C114.4,105.8,114.1,105.1,114.1,104.3L114.1,104.3
					z"/>
				<path id="path3038_15_" class="st5" d="M123.9,112.9c0.7-0.3,1.4-0.5,2.1-0.7c0.5,1.4,0.9,2.8,1.4,4.2c0.7-0.2,1.4-0.5,2.1-0.7
					c0.5,1.4,0.9,2.8,1.4,4.2c5.7-1.8,11.4-3.6,17-5.5c-0.4-1.4-0.9-2.8-1.4-4.3c0.7-0.2,1.4-0.5,2.2-0.7c0.8,2.1,1.3,4.3,2,6.4
					c-3.6,1.2-7.2,2.4-10.8,3.5c-3.5,1.1-7,2.3-10.6,3.3c-0.7-2.1-1.4-4.2-2.1-6.4c-0.7,0.2-1.4,0.4-2.1,0.6
					C124.7,115.8,124.2,114.4,123.9,112.9L123.9,112.9z"/>
			</g>
		</g>
	</g>
</g>
<g id="Calque_2">
	<path class="st4" d="M766.5,138H16.5C7.4,138,0,130.6,0,121.5V16.5C0,7.4,7.4,0,16.5,0h750.1c9.1,0,16.5,7.4,16.5,16.5v105.1
		C783,130.6,775.6,138,766.5,138z"/>
	<g>
		<path class="st3" d="M593.1,78.3h-3.1V46.1c0-0.5-0.4-1-1-1l-16.6,5c-0.8,0.2-1,0.9-1,1.4v9.5c0,0.5,0.4,1,1,1l3-0.9v17.1h-3.1
			c-0.5,0-1,0.4-1,1v10c0,0.5,0.4,1,1,1h20.9c0.5,0,1-0.4,1-1v-10C594.1,78.8,593.6,78.3,593.1,78.3z"/>
		<path class="st3" d="M699.9,90.4c3.9,0.4,8-0.8,11.6-2c8.5-2.9,16.6-7.5,23.8-12.9c3.1-2.4,6.2-4.9,8.8-7.9
			c1.9-2.2,3.8-4.8,3.9-7.8c0.2-3.3-5-3.3-5.2,0c0,0,0,0.1,0,0.1c0,0,0,0,0,0.1c-0.1,0.3-0.1,0.5-0.2,0.8c0,0,0,0,0,0.1
			c0,0.1-0.1,0.2-0.1,0.2c-0.2,0.3-0.4,0.7-0.5,1c-0.2,0.3-0.4,0.6-0.6,0.9c-0.1,0.1-0.2,0.3-0.3,0.4c0,0,0,0-0.1,0.1
			c-0.6,0.7-1.2,1.4-1.8,2c-3,3.2-6.1,5.5-9.6,7.9c-4,2.8-8.2,5.2-12.6,7.3c-3.7,1.8-7.7,3.4-12,4.3c-0.4,0.1-0.9,0.2-1.3,0.2
			c0,0-0.2,0-0.3,0c-0.2,0-0.3,0-0.5,0.1c-0.9,0.1-1.8,0.1-2.7,0.1c-0.1,0-0.3,0-0.4,0c-0.1,0-0.3,0-0.4-0.1c-0.3-0.1-0.7-0.2-1-0.3
			c0.3,0.1-0.5-0.3-0.7-0.4c-0.1,0-0.1-0.1-0.2-0.1c0.1,0-0.3-0.2-0.4-0.3c-0.1-0.1-0.5-0.5-0.5-0.6c-0.1-0.2-0.2-0.3-0.3-0.5
			c3.6-2.5,7-5.5,10-8.6c3.5-3.7,6.8-7.8,9.1-12.3c2.2-4.4,3.9-10.5,0.3-14.7c-3.8-4.3-10-1.2-13.5,1.7c-3.5,2.9-6,6.9-7.8,11
			c-1.8,3.9-3.2,8.1-3.9,12.4c-0.4,2.7-0.7,5.7-0.3,8.4c-1.5,0.9-3.1,1.8-4.8,2.5c-1.9,0.8-4.3,1.5-6.5,1.9c0.1,0-0.5,0.1-0.5,0.1
			c-0.3,0-0.5,0-0.8,0.1c-0.5,0-1,0-1.5,0c-0.1,0-0.3,0-0.4,0c0.1,0-0.3,0-0.4-0.1c-0.4-0.1-0.8-0.2-1.2-0.3
			c0.2,0.1-0.6-0.3-0.7-0.4c-0.1,0-0.1-0.1-0.2-0.1c-0.1-0.1-0.2-0.1-0.2-0.2c-0.2-0.2-0.4-0.4-0.6-0.6c0-0.1-0.1-0.1-0.1-0.2
			c-0.1-0.2-0.2-0.4-0.3-0.6c4-2.8,7.8-6,11-9.6c4-4.5,7.7-9.7,9.9-15.3c1.8-4.6,1.3-10.4-3.8-12.4c-2.3-0.9-4.9-0.2-7,0.8
			c-2.9,1.3-5.3,3.7-7.3,6.1c-2.6,3.1-4.4,6.8-5.9,10.5c-1.6,4-2.7,8.2-3.1,12.5c-0.1,1.7-0.1,3.4,0.1,5.1c-1.9,1.2-4,2.2-6,3.1
			c-0.1,0.1-0.7,0.3-0.8,0.3c-0.3,0.1-0.5,0.2-0.8,0.3c-0.2,0.1-0.5,0.2-0.7,0.2c-0.5,0.1-1,0.3-1.5,0.4c-0.2,0.1-0.5,0.1-0.7,0.1
			c0,0-0.3,0.1-0.4,0.1c-0.8,0.1-1.6,0.1-2.4,0c0,0,0,0-0.1,0c-0.2,0-0.3-0.1-0.5-0.1c-0.2-0.1-0.4-0.1-0.7-0.2
			c0.1,0-0.5-0.2-0.7-0.3c-0.1-0.1-0.3-0.2-0.4-0.2c0,0-0.1,0-0.1-0.1c-0.2-0.2-0.4-0.4-0.6-0.7c0,0,0,0,0-0.1
			c-0.1-0.1-0.1-0.2-0.2-0.3c-0.2-0.3-0.3-0.5-0.5-0.8c0-0.1-0.1-0.1-0.1-0.2c0-0.1-0.1-0.4-0.2-0.4c0,0,0-0.1,0-0.1
			c6.7-4.2,12.3-9.9,16.5-16.7c2.8-4.6,6.2-11,3.4-16.4c-2.5-4.9-8.8-3.8-12.6-1.3c-7,4.6-10.5,12.8-12.2,20.6
			c-0.7,3.3-1.3,7.3-0.9,11.1c-1.2,0.6-2.4,1.2-3.7,1.7c-1.3,0.6-1.6,2.4-0.9,3.5c0.8,1.3,2.2,1.5,3.5,0.9c0.8-0.3,1.6-0.7,2.3-1.1
			c0.6,1.4,1.5,2.6,2.6,3.7c3.4,3.1,8.2,2.9,12.4,1.7c3-0.9,5.9-2.3,8.7-3.9c0.1,0.2,0.2,0.4,0.4,0.6c2.4,3.5,6.5,4.6,10.6,4.2
			c4.8-0.4,9.4-2.3,13.6-4.7C693.6,88.5,696.4,90.1,699.9,90.4z M647.8,72.2c0-0.2,0.1-0.4,0.1-0.5c0.1-0.4,0.1-0.9,0.2-1.3
			c0.2-0.9,0.4-1.9,0.6-2.8c0.4-1.8,1-3.5,1.7-5.2c0.1-0.3,0.3-0.7,0.4-1c0,0,0.3-0.7,0.4-0.8c0.3-0.7,0.7-1.5,1.1-2.2
			c0.3-0.6,0.7-1.2,1.1-1.8c0.1-0.2,0.2-0.3,0.3-0.5c0,0,0.4-0.5,0.4-0.5c0.4-0.5,0.8-0.9,1.2-1.3c1.8-1.9,3.9-3.5,6.2-4
			c0,0,0,0,0.1,0c0,0,0.1,0,0.2,0c0.2,0,0.4,0,0.7,0c0,0,0,0,0,0c0,0,0.1,0,0.1,0c0.1,0,0.2,0.1,0.3,0.1c-0.2,0,0.2,0.1,0.3,0.2
			c0,0,0,0,0,0c0,0,0,0,0,0c0,0,0.2,0.2,0.2,0.3c0.1,0.1,0.1,0.2,0.2,0.3c0,0,0.1,0.3,0.2,0.4c0.1,0.2,0.1,0.4,0.2,0.7
			c0,0,0,0,0,0.1c0,0,0,0.1,0,0.2c0,0.3,0,0.5,0,0.8c0,1.1-0.4,2.3-0.9,3.6c-1.1,3-3,5.8-4.8,8.4c-1.7,2.4-3.6,4.6-5.8,6.6
			c-1.6,1.5-3.3,2.9-5.1,4.1c0-1.1,0.1-2.3,0.2-3.4C647.7,72.5,647.8,72.3,647.8,72.2z M649.1,83.3
			C649.1,83.2,649.1,83.2,649.1,83.3L649.1,83.3z M670.8,74.9c0-0.2,0-0.4,0.1-0.5c0,0,0.1-0.6,0.1-0.7c0.3-2.1,0.8-4.1,1.5-6.1
			c1.2-3.8,2.6-6.9,4.9-10.4c0.2-0.3,0.5-0.7,0.7-1c0,0,0-0.1,0.1-0.1c0.2-0.3,0.5-0.6,0.7-0.8c1-1.2,2.2-2.4,3.5-3.3
			c1-0.7,1.9-1.2,2.8-1.5c0.2-0.1,0.5-0.1,0.7-0.2c0,0,0.1,0,0.1,0c0,0,0.1,0,0.2,0c0.2,0,0.4,0,0.7,0c0,0,0.1,0,0.1,0
			c0,0,0.1,0,0.2,0.1c0.1,0,0.2,0.1,0.3,0.1c0.1,0.1,0.2,0.1,0.3,0.2c0,0,0,0,0.1,0.1c0,0,0.2,0.2,0.2,0.2c0.1,0.1,0.1,0.2,0.2,0.3
			c0,0,0,0,0,0.1c0,0,0,0.1,0,0.1c0.1,0.2,0.1,0.4,0.2,0.6c0,0.1,0,0.1,0,0.1c0,0.1,0,0.2,0,0.4c0.1,2.3-1.1,4.8-2.3,7
			c-3.8,7-9.2,13-15.5,17.6c0-0.3,0-0.6,0-0.9C670.7,75.9,670.7,75.4,670.8,74.9z M695.1,76.1c0-0.5,0.1-0.9,0.1-1.4
			c0,0,0-0.4,0.1-0.5c0-0.2,0.1-0.4,0.1-0.5c0.2-1.1,0.4-2.1,0.6-3.2c0.5-2.1,1.2-4.1,1.9-6.1c0.1-0.2,0.2-0.5,0.3-0.7
			c0-0.1,0-0.1,0.1-0.1c0,0,0-0.1,0.1-0.2c0.2-0.5,0.4-0.9,0.6-1.3c0.4-0.9,0.9-1.8,1.4-2.7c0.4-0.8,0.9-1.5,1.4-2.2
			c0.2-0.3,0.5-0.7,0.7-1c0,0,0-0.1,0.1-0.1c0.3-0.4,0.7-0.8,1-1.2c1.7-2,4-3.9,6.2-4.5c0,0,0.4-0.1,0.5-0.1c0.2,0,0.3,0,0.5,0
			c0.1,0,0.3,0,0.4,0c0.1,0,0.2,0.1,0.4,0.1c0,0,0,0,0,0c0,0,0,0,0.1,0c0.1,0,0.2,0.1,0.3,0.2c0.1,0.1,0.2,0.2,0.2,0.2c0,0,0,0,0,0
			c0.1,0.1,0.1,0.2,0.2,0.3c0,0,0.1,0.3,0.2,0.3c0,0.1,0.1,0.3,0.1,0.4c0.1,0.2,0.1,0.4,0.1,0.6c-0.1-0.4,0,0.4,0,0.4
			c0.1,1.3-0.2,2.2-0.6,3.5c-0.7,2.2-1.8,4.2-3,6.1c-2.8,4.4-6.3,8.2-10.3,11.7c-1.2,1.1-2.4,2.1-3.7,3C695,77,695,76.5,695.1,76.1z
			"/>
		<path class="st3" d="M582.6,43.7c4,0,7.3-3.3,7.3-7.3c0-4-3.3-7.3-7.3-7.3c-4,0-7.3,3.3-7.3,7.3C575.3,40.4,578.6,43.7,582.6,43.7
			z"/>
		<path class="st3" d="M565.3,45.2h-7.7c0-0.3,0-0.5,0-0.8v-9.9c0,0,0.2-2.8-2.7-1.8c-3,1-9.8,3-9.8,3s-1.6,0.2-1.6,2.3
			c0,1.7,0,2.7,0.1,7.1H540c-0.5,0-1,0.4-1,1v10c0,0.5,0.4,1,1,1h3.7c0,5.3,0,12.4,0,21.8c0,0-0.9,17.7,21.4,9c0,0,1.1-0.6,1.2-1.6
			v-9.7c0,0,0-1.5-1.4-0.8c0,0-7.3,3.3-7.3-1.4c0-3.8,0-4,0-17.2h7.7c0.5,0,1-0.4,1-1v-10C566.3,45.6,565.9,45.2,565.3,45.2z"/>
		<path class="st3" d="M620.3,45.2c-2.4,0-4.7,0.5-6.8,1.4v-0.4c0-0.5-0.4-1-1-1h-16.9c-0.5,0-1,0.4-1,1v10c0,0.5,0.4,1,1,1h3.2
			v38.8h-3.2c-0.5,0-1,0.4-1,1v10c0,0.5,0.4,1,1,1h21c0.5,0,1-0.4,1-1v-10c0-0.5-0.4-1-1-1h-3.1v-7c2.1,0.9,4.4,1.4,6.8,1.4
			c10.9,0,19.7-10.1,19.7-22.6S631.2,45.2,620.3,45.2z M620.5,78.6c-3.9,0-7.1-4.9-7-10.9c0-6,3.2-10.9,7.1-10.8
			c3.9,0,7.1,4.9,7,10.9C627.6,73.8,624.4,78.6,620.5,78.6z"/>
		<path class="st3" d="M699.4,102.6c-1.6,0-2.5,1.4-2.5,2.6c0,1.2,1.1,2.4,2.5,2.4c1.7,0,2.6-1.1,2.6-2.4
			C702,104,701,102.6,699.4,102.6z"/>
		<path class="st3" d="M709.3,104.5c-1.4,0-2.3-1.2-2.3-2.6c0-1.5,0.6-2.9,2-2.9c1,0,1.4,1.3,1.4,2.4h3.3v-5.1H711l-0.4,1.1
			c-0.4-0.4-1.3-1.3-2.8-1.3c-2.9,0-5.5,1.8-5.5,5.7c0,4,2.9,6,6.2,6c2.4,0,4.4-1.1,5.5-2.3l-2-2.3
			C711.3,104,710.5,104.5,709.3,104.5z"/>
		<path class="st3" d="M720.6,96c-3.1,0-6.1,2.1-6.1,5.8c0,4,3,5.9,6.3,5.9c3.4,0,6.2-2.1,6.1-5.9C726.8,98.2,724.2,96.1,720.6,96z
			 M720.7,104.9c-0.9,0-1.7-1.2-1.7-3c0-1.6,0.7-2.9,1.5-2.9c1.1,0,1.6,1.3,1.6,3C722.3,103.6,721.7,104.9,720.7,104.9z"/>
		<path class="st3" d="M746,101.4c0-2.7-0.6-5.4-4.2-5.4c-1.5,0-2.6,0.8-3.3,1.6c-0.4-0.5-1.1-1.6-3.3-1.6c-1.4,0-2.4,1.2-2.8,1.6
			l-0.5-1.3h-4.2v3h0.9v5.3h-0.9v2.9h6.7v-2.9H733v-4c0-0.9,0.3-1.3,1-1.3c0.9,0,0.9,0.7,0.9,2.6v5.7h5.8v-3h-1.3v-3.6
			c0-1,0.2-1.6,1.2-1.6c1.1,0,0.9,1.7,0.9,2.8v5.5h5.7v-3H746V101.4z"/>
	</g>
	<g id="Calque_5_19_">
		<g>
			<path class="st3" d="M140.4,86.1l-96.1,18.7c-5.7,1.1-11.2-2.6-12.3-8.3l-9.2-47.3c-1.1-5.7,2.6-11.2,8.3-12.3l96.1-18.7
				c5.7-1.1,11.2,2.6,12.3,8.3l9.2,47.3C149.8,79.5,146.1,85,140.4,86.1z"/>
			<g>
				<path class="st4" d="M43,57.2l-1-4.9l9.3-5.1l1.6,8.1l5.1-1l1.4,7l-5.1,1l1.9,9.6c0.4,1.8,0.5,4.4,2.6,4
					c0.7-0.1,2.3-0.9,3.2-1.6l1.3,6.9c-1.5,1-5.1,2.1-6.3,2.3c-8.1,1.6-9.2-2.8-10.7-9.6l-1.9-9.6l-2.9,0.6l-1.4-7L43,57.2z"/>
				<path class="st4" d="M67.7,80.3l-1.4-7l2.3-0.4l-2.5-12.9l-2.3,0.4l-1.4-7l12.5-2.4l3.9,19.8l2.6-0.5l1.4,7L67.7,80.3z
					 M67.2,38.6c3.7-0.7,6.5,1.9,7,4.3c0.6,3-1,5.8-4.8,6.6c-3.4,0.7-6.4-1.7-6.9-4.3C61.9,42.7,63.4,39.3,67.2,38.6z"/>
				<path class="st4" d="M87.3,80.5l-4.6-23.7l-2.3,0.4l-1.4-7.1l12.3-2.4l1.3,1.7c0.9-0.9,2.8-3,6.1-3.6c8.4-1.6,13.9,4,15.4,11.6
					c1.7,8.5-2.6,14.9-9.6,16.2c-4.5,0.9-7-0.5-7.4-0.7l1.1,5.4l2.9-0.6l1.4,7L86.4,88l-1.4-7L87.3,80.5z M97.4,54
					c-2.1,0.4-3.5,3.4-2.5,7.6c0.7,3.7,3.1,6.1,5.1,5.7c2.3-0.4,3.3-3.4,2.5-7.5C102,56.6,99.8,53.5,97.4,54z"/>
				<path class="st4" d="M122.7,57.9c3.8-0.7,6.9,1.4,7.5,4.4c0.6,3-1.4,6-5.3,6.8c-3.5,0.7-6.7-1.6-7.2-4.3
					C117.2,62.1,118.8,58.7,122.7,57.9z M111.7,32.7l12.9-2.5l2,10.2l-0.2,14.1l-7.1,1.4l-5.5-13L111.7,32.7z"/>
			</g>
			<g>
				<path id="path4109_19_" class="st4" d="M114.3,76c0.2,0.6,0.4,1.2,0.6,1.9l0.1,0.3l-0.3,0.1c-0.6,0.2-1.2,0.4-1.8,0.6
					c2,6.3,4,12.6,6.1,18.9L119,98l-0.3,0.1c-0.5,0.2-1,0.3-1.6,0.5l-0.3,0.1l-0.1-0.3c-0.2-0.6-0.4-1.2-0.6-1.8
					c-2.1,0.7-4.3,1.4-6.4,2.1c0.7,2.1,1.4,4.3,2.1,6.4c0.6-0.2,1.3-0.4,1.9-0.6l0.3-0.1l0.1,0.4c0.1,0.6,0.4,1.2,0.6,1.9
					c0.6-0.2,1.2-0.3,1.8-0.5l0.2-0.1l0.1,0.2c0.5,1.3,0.9,2.6,1.4,3.9c0.6-0.2,1.2-0.4,1.9-0.6l0.3-0.1l0.1,0.3
					c0.4,1.3,0.9,2.6,1.3,3.9c0.6-0.2,1.3-0.4,1.9-0.6l0.3-0.1l0.1,0.3c0.3,1.4,0.8,2.7,1.3,4c0.6-0.2,1.2-0.4,1.8-0.6l0.3-0.1
					l0.1,0.3c0.7,2,1.3,4.1,2,6.1c3.5-1.1,7.1-2.2,10.6-3.3c3.6-1.2,7.2-2.3,10.8-3.5c-0.7-2-1.2-4.1-1.9-6.1l-0.1-0.3l0.3-0.1
					c0.6-0.2,1.2-0.4,1.8-0.6c-0.6-2-1.3-4.1-1.9-6.1l-0.1-0.2l0.2-0.1c0.6-0.2,1.2-0.5,1.8-0.7c-0.7-2.3-1.5-4.5-2.1-6.8l0,0l0,0
					c-0.9-2.7-1.8-5.4-2.7-8.1c-0.6,0.2-1.2,0.4-1.8,0.6l-0.3,0.1l-0.1-0.3c-0.2-0.6-0.4-1.2-0.6-1.8c-0.6,0.2-1.2,0.4-1.9,0.6
					l-0.2,0.1l-0.1-0.2c-0.2-0.6-0.4-1.2-0.6-1.9c-1.3,0.4-2.6,0.9-4,1.3l-0.3,0.1l-0.1-0.3c-0.2-0.6-0.4-1.2-0.6-1.8
					c-2.1,0.5-4.1,1.3-6.1,1.9l-0.3,0.1L129,85c-0.2-0.6-0.4-1.2-0.6-1.8c-1.3,0.4-2.6,0.9-4,1.3l-0.3,0.1l-0.1-0.3
					c-0.9-2.7-1.8-5.5-2.7-8.2c-0.4,0.1-0.7,0.2-1.1,0.3c-0.3,0.1-0.5,0.2-0.8,0.3l-0.3,0.1l-0.1-0.3c-0.2-0.6-0.4-1.3-0.7-1.9
					C117.1,75.1,115.7,75.5,114.3,76L114.3,76z"/>
				<path id="path3016_19_" class="st5" d="M114.3,76c1.4-0.4,2.8-0.9,4.2-1.4c0.3,0.7,0.5,1.4,0.7,2.1c-1.4,0.5-2.8,0.9-4.3,1.4
					C114.7,77.4,114.5,76.7,114.3,76z"/>
				<path id="path3018_19_" class="st5" d="M112.9,78.8c0.7-0.2,1.4-0.5,2.1-0.7c2.5,7.8,5.1,15.7,7.6,23.5
					c-0.7,0.2-1.4,0.5-2.1,0.7c-0.2-0.7-0.5-1.4-0.7-2.1c-0.7,0.2-1.4,0.4-2.1,0.7c-0.2-0.7-0.5-1.4-0.7-2.1
					c0.7-0.2,1.4-0.5,2.1-0.7C116.9,91.6,114.9,85.2,112.9,78.8L112.9,78.8z"/>
				<path id="path3020_19_" class="st5" d="M119.2,76.8c0.7-0.2,1.4-0.5,2.1-0.7c0.9,2.8,1.8,5.7,2.8,8.5c1.4-0.4,2.8-0.9,4.2-1.3
					c0.2,0.7,0.5,1.4,0.7,2.1c2.1-0.7,4.2-1.4,6.4-2c0.2,0.7,0.4,1.4,0.7,2.1c1.4-0.4,2.8-0.9,4.3-1.4c0.2,0.7,0.4,1.4,0.7,2.1
					c0.7-0.2,1.4-0.4,2.1-0.6c0.2,0.7,0.4,1.4,0.7,2.1c0.7-0.2,1.4-0.4,2.1-0.7c0.9,2.7,1.7,5.5,2.7,8.1c0.7,2.3,1.4,4.5,2.1,6.8
					c-0.7,0.2-1.4,0.5-2.1,0.8c0.7,2.1,1.4,4.2,2,6.3c-0.7,0.2-1.4,0.5-2.1,0.7c-0.8-2.1-1.4-4.3-2.1-6.4c0.7-0.2,1.4-0.5,2.1-0.7
					c-1.6-5-3.2-9.9-4.8-14.9c-0.7,0.2-1.4,0.5-2.1,0.7c-0.3-0.7-0.4-1.4-0.7-2.1c-0.7,0.1-1.4,0.4-2.1,0.6c0.7,2.1,1.4,4.3,2,6.4
					c-0.7,0.2-1.4,0.5-2.1,0.7c-1-2.8-1.8-5.7-2.8-8.5c-1.4,0.5-2.9,0.9-4.3,1.4c0.7,2.1,1.4,4.3,2.1,6.4c-0.7,0.2-1.4,0.5-2.1,0.7
					c-0.9-2.8-1.8-5.7-2.7-8.5c-1.4,0.5-2.9,0.9-4.3,1.4c0.9,2.8,1.8,5.7,2.7,8.5c-0.7,0.2-1.4,0.5-2.1,0.7
					C123.3,89.6,121.3,83.2,119.2,76.8L119.2,76.8z"/>
				<path id="path3026_19_" class="st5" d="M109.8,98.6c2.1-0.7,4.3-1.4,6.4-2.1c0.2,0.7,0.5,1.4,0.7,2.1c-1.4,0.5-2.8,0.9-4.2,1.4
					c0.4,1.4,1,2.8,1.3,4.2c-0.7,0.3-1.4,0.5-2.1,0.7C111.1,102.9,110.5,100.8,109.8,98.6z"/>
				<path id="path3030_19_" class="st5" d="M114.1,104.3c0.7-0.3,1.4-0.5,2.1-0.7c0.2,0.7,0.5,1.4,0.7,2.1c0.7-0.2,1.4-0.5,2.1-0.7
					c0.5,1.4,0.9,2.8,1.4,4.3c0.7-0.2,1.4-0.5,2.1-0.7c0.5,1.4,1,2.8,1.3,4.3c-0.7,0.3-1.4,0.5-2.1,0.7c-0.5-1.4-0.9-2.8-1.4-4.2
					c-0.7,0.2-1.4,0.4-2.1,0.6c-0.5-1.4-0.9-2.8-1.4-4.2c-0.7,0.2-1.4,0.4-2.1,0.6C114.4,105.8,114.1,105.1,114.1,104.3L114.1,104.3
					z"/>
				<path id="path3038_19_" class="st5" d="M123.9,112.9c0.7-0.3,1.4-0.5,2.1-0.7c0.5,1.4,0.9,2.8,1.4,4.2c0.7-0.2,1.4-0.5,2.1-0.7
					c0.5,1.4,0.9,2.8,1.4,4.2c5.7-1.8,11.4-3.6,17-5.5c-0.4-1.4-0.9-2.8-1.4-4.3c0.7-0.2,1.4-0.5,2.2-0.7c0.8,2.1,1.3,4.3,2,6.4
					c-3.6,1.2-7.2,2.4-10.8,3.5c-3.5,1.1-7,2.3-10.6,3.3c-0.7-2.1-1.4-4.2-2.1-6.4c-0.7,0.2-1.4,0.4-2.1,0.6
					C124.7,115.8,124.2,114.4,123.9,112.9L123.9,112.9z"/>
			</g>
		</g>
	</g>
	<g>
		<path class="st33" d="M210.1,61.6c-0.1-0.1-0.4-0.4-1-0.7c-0.6-0.4-1.3-0.7-2.2-1.1c-0.9-0.4-1.8-0.7-2.8-1c-1-0.3-2-0.4-3.1-0.4
			c-2.8,0-4.2,0.9-4.2,2.8c0,0.6,0.2,1.1,0.5,1.4c0.3,0.4,0.8,0.7,1.3,1c0.6,0.3,1.3,0.6,2.2,0.8c0.9,0.3,1.9,0.5,3.1,0.9
			c1.6,0.4,3.1,0.9,4.4,1.5c1.3,0.5,2.4,1.2,3.3,2c0.9,0.8,1.6,1.7,2.1,2.9c0.5,1.1,0.7,2.5,0.7,4c0,1.9-0.4,3.5-1.1,4.9
			c-0.7,1.3-1.7,2.4-2.9,3.2c-1.2,0.8-2.5,1.4-4.1,1.8c-1.5,0.4-3.1,0.6-4.8,0.6c-1.2,0-2.5-0.1-3.8-0.3c-1.3-0.2-2.6-0.5-3.8-0.8
			c-1.2-0.4-2.5-0.8-3.6-1.3c-1.2-0.5-2.2-1.1-3.2-1.8l3.5-6.9c0.1,0.2,0.5,0.5,1.2,0.9c0.7,0.4,1.6,0.9,2.6,1.3
			c1,0.4,2.2,0.8,3.5,1.2c1.3,0.4,2.6,0.5,3.9,0.5c2.8,0,4.2-0.8,4.2-2.5c0-0.6-0.2-1.2-0.6-1.6c-0.4-0.4-1-0.8-1.7-1.1
			c-0.7-0.3-1.6-0.6-2.6-0.9c-1-0.3-2.1-0.6-3.3-1c-1.6-0.5-2.9-1-4.1-1.6c-1.2-0.6-2.1-1.2-2.9-1.9c-0.8-0.7-1.3-1.6-1.7-2.5
			c-0.4-1-0.6-2.1-0.6-3.4c0-1.8,0.3-3.4,1-4.8c0.7-1.4,1.6-2.5,2.7-3.5c1.2-0.9,2.5-1.7,4-2.1c1.5-0.5,3.1-0.7,4.8-0.7
			c1.2,0,2.4,0.1,3.5,0.3c1.2,0.2,2.3,0.5,3.3,0.9c1.1,0.4,2,0.8,3,1.2c0.9,0.4,1.8,0.9,2.5,1.3L210.1,61.6z"/>
		<path class="st33" d="M226.2,86.1c-2.6,0-4.6-0.8-5.9-2.4c-1.3-1.6-2-4-2-7.1V60.5h7.7v14.4c0,1.5,0.3,2.7,0.9,3.5
			c0.6,0.8,1.5,1.2,2.6,1.2c1,0,2-0.3,3-0.8c1-0.5,1.8-1.5,2.5-2.8V60.5h7.7V77c0,0.8,0.1,1.3,0.4,1.6c0.2,0.3,0.7,0.5,1.3,0.6v6.5
			c-0.7,0.2-1.4,0.3-1.9,0.3c-0.5,0-1,0.1-1.4,0.1c-2.8,0-4.3-1.1-4.7-3.2l-0.1-1.5c-1.2,1.7-2.6,2.9-4.3,3.7
			C230.2,85.7,228.3,86.1,226.2,86.1z"/>
		<path class="st33" d="M264.6,86.1c-1.9,0-3.6-0.4-5-1.2c-1.4-0.8-2.5-1.9-3.3-3.4v14.3h-7.7V60.5h6.7v4.1c0.9-1.4,2.1-2.6,3.5-3.4
			c1.4-0.8,3-1.2,5-1.2c1.7,0,3.3,0.3,4.7,1c1.4,0.7,2.7,1.6,3.7,2.8c1,1.2,1.9,2.5,2.4,4.1c0.6,1.6,0.9,3.3,0.9,5.1
			c0,1.9-0.3,3.6-0.8,5.2c-0.5,1.6-1.3,3-2.3,4.2c-1,1.2-2.1,2.1-3.5,2.8C267.6,85.8,266.1,86.1,264.6,86.1z M262,79.7
			c0.8,0,1.6-0.2,2.3-0.6c0.7-0.4,1.3-0.9,1.8-1.5c0.5-0.6,0.9-1.3,1.2-2.1c0.3-0.8,0.4-1.7,0.4-2.6c0-0.9-0.2-1.8-0.5-2.6
			c-0.3-0.8-0.7-1.5-1.2-2c-0.5-0.6-1.2-1-1.9-1.3c-0.8-0.3-1.6-0.5-2.4-0.5c-1.1,0-2.1,0.3-3,0.9s-1.7,1.5-2.2,2.5v5.2
			c0.5,1.3,1.3,2.4,2.3,3.2C259.7,79.2,260.8,79.7,262,79.7z"/>
		<path class="st33" d="M295.3,86.1c-1.9,0-3.6-0.4-5-1.2c-1.4-0.8-2.5-1.9-3.3-3.4v14.3h-7.7V60.5h6.7v4.1c0.9-1.4,2.1-2.6,3.5-3.4
			c1.4-0.8,3-1.2,5-1.2c1.7,0,3.3,0.3,4.7,1c1.4,0.7,2.7,1.6,3.7,2.8c1,1.2,1.9,2.5,2.4,4.1c0.6,1.6,0.9,3.3,0.9,5.1
			c0,1.9-0.3,3.6-0.8,5.2c-0.5,1.6-1.3,3-2.3,4.2c-1,1.2-2.1,2.1-3.5,2.8C298.3,85.8,296.8,86.1,295.3,86.1z M292.7,79.7
			c0.8,0,1.6-0.2,2.3-0.6c0.7-0.4,1.3-0.9,1.8-1.5c0.5-0.6,0.9-1.3,1.2-2.1c0.3-0.8,0.4-1.7,0.4-2.6c0-0.9-0.2-1.8-0.5-2.6
			c-0.3-0.8-0.7-1.5-1.2-2c-0.5-0.6-1.2-1-1.9-1.3c-0.8-0.3-1.6-0.5-2.4-0.5c-1.1,0-2.1,0.3-3,0.9s-1.7,1.5-2.2,2.5v5.2
			c0.5,1.3,1.3,2.4,2.3,3.2C290.4,79.2,291.5,79.7,292.7,79.7z"/>
		<path class="st33" d="M322.1,86.1c-2.1,0-4.1-0.4-5.7-1.1c-1.7-0.7-3.1-1.7-4.2-2.9c-1.2-1.2-2-2.6-2.6-4.2
			c-0.6-1.6-0.9-3.2-0.9-5s0.3-3.4,0.9-5c0.6-1.6,1.5-3,2.6-4.2c1.2-1.2,2.6-2.2,4.2-2.9c1.7-0.7,3.6-1.1,5.7-1.1
			c2.1,0,4,0.4,5.7,1.1c1.7,0.7,3.1,1.7,4.2,2.9c1.2,1.2,2,2.6,2.6,4.2s0.9,3.2,0.9,5s-0.3,3.4-0.9,5c-0.6,1.6-1.5,3-2.6,4.2
			c-1.2,1.2-2.6,2.2-4.2,2.9C326.1,85.8,324.2,86.1,322.1,86.1z M316.4,73.1c0,2,0.5,3.6,1.6,4.8c1.1,1.2,2.4,1.8,4,1.8
			c0.8,0,1.5-0.2,2.2-0.5c0.7-0.3,1.3-0.8,1.8-1.3c0.5-0.6,0.9-1.3,1.2-2.1s0.4-1.7,0.4-2.7c0-2-0.5-3.6-1.6-4.8
			c-1.1-1.2-2.4-1.8-4-1.8c-0.8,0-1.5,0.2-2.2,0.5c-0.7,0.3-1.3,0.8-1.8,1.3c-0.5,0.6-0.9,1.3-1.2,2.1
			C316.6,71.2,316.4,72.1,316.4,73.1z"/>
		<path class="st33" d="M355.3,67c-1.9,0-3.5,0.3-5,0.9c-1.5,0.6-2.6,1.4-3.3,2.6v15.1h-7.7V60.5h7.1v5.1c0.9-1.7,2-3,3.3-4
			c1.4-1,2.8-1.5,4.3-1.5c0.4,0,0.6,0,0.8,0c0.2,0,0.3,0,0.5,0V67z"/>
		<path class="st33" d="M374.9,84.3c-1.1,0.4-2.3,0.9-3.6,1.2c-1.4,0.4-2.7,0.6-4.1,0.6c-1,0-1.9-0.1-2.7-0.4
			c-0.8-0.2-1.6-0.6-2.2-1.2c-0.6-0.5-1.1-1.2-1.5-2.1c-0.4-0.9-0.6-1.9-0.6-3.1V66.3h-3.2v-5.8h3.2v-8h7.7v8h5.1v5.8h-5.1v10.5
			c0,0.8,0.2,1.4,0.6,1.8c0.4,0.4,0.9,0.6,1.6,0.6c0.6,0,1.2-0.1,1.8-0.3c0.6-0.2,1.1-0.4,1.6-0.6L374.9,84.3z"/>
		<path class="st33" d="M396.7,86.1c-2.6,0-4.6-0.8-5.9-2.4c-1.3-1.6-2-4-2-7.1V60.5h7.7v14.4c0,1.5,0.3,2.7,0.9,3.5
			c0.6,0.8,1.5,1.2,2.6,1.2c1,0,2-0.3,3-0.8c1-0.5,1.8-1.5,2.5-2.8V60.5h7.7V77c0,0.8,0.1,1.3,0.4,1.6c0.2,0.3,0.7,0.5,1.3,0.6v6.5
			c-0.7,0.2-1.4,0.3-1.9,0.3c-0.5,0-1,0.1-1.4,0.1c-2.8,0-4.3-1.1-4.7-3.2l-0.1-1.5c-1.2,1.7-2.6,2.9-4.3,3.7
			C400.7,85.7,398.8,86.1,396.7,86.1z"/>
		<path class="st33" d="M429.1,86.1c-2.1,0-4.3-0.3-6.3-1c-2.1-0.7-3.8-1.7-5.3-3l2.7-4.7c1.5,1.1,3,1.9,4.5,2.4
			c1.5,0.6,2.9,0.9,4.2,0.9c1,0,1.8-0.2,2.3-0.5c0.5-0.4,0.8-0.9,0.8-1.5c0-0.7-0.3-1.2-1-1.6c-0.7-0.4-1.9-0.8-3.6-1.3
			c-1.7-0.5-3.1-0.9-4.3-1.4c-1.2-0.4-2.1-0.9-2.9-1.5c-0.7-0.5-1.3-1.2-1.6-1.9c-0.3-0.7-0.5-1.5-0.5-2.5c0-1.3,0.3-2.4,0.8-3.5
			c0.5-1.1,1.2-2,2.1-2.7c0.9-0.7,2-1.3,3.2-1.7c1.2-0.4,2.6-0.6,4-0.6c1.9,0,3.7,0.3,5.3,0.8c1.6,0.5,3.2,1.4,4.8,2.8l-3,4.6
			c-1.4-1-2.7-1.7-3.8-2.2c-1.1-0.4-2.2-0.7-3.3-0.7c-0.8,0-1.5,0.2-2.1,0.5c-0.6,0.3-0.9,0.9-0.9,1.6c0,0.7,0.3,1.2,0.9,1.6
			s1.8,0.7,3.5,1.2c1.8,0.5,3.3,1,4.5,1.4c1.2,0.5,2.2,1,3,1.6c0.8,0.6,1.3,1.3,1.7,2c0.4,0.8,0.5,1.7,0.5,2.7c0,2.5-0.9,4.5-2.8,6
			C434.7,85.4,432.2,86.1,429.1,86.1z"/>
		<path class="st33" d="M466.2,86.1c-2.1,0-4.1-0.4-5.7-1.1c-1.7-0.7-3.1-1.7-4.2-2.9c-1.2-1.2-2-2.6-2.6-4.2
			c-0.6-1.6-0.9-3.2-0.9-5s0.3-3.4,0.9-5c0.6-1.6,1.5-3,2.6-4.2c1.2-1.2,2.6-2.2,4.2-2.9c1.7-0.7,3.6-1.1,5.7-1.1s4,0.4,5.7,1.1
			c1.7,0.7,3.1,1.7,4.2,2.9c1.2,1.2,2,2.6,2.6,4.2c0.6,1.6,0.9,3.2,0.9,5s-0.3,3.4-0.9,5c-0.6,1.6-1.5,3-2.6,4.2
			c-1.2,1.2-2.6,2.2-4.2,2.9C470.3,85.8,468.4,86.1,466.2,86.1z M460.6,73.1c0,2,0.5,3.6,1.6,4.8c1.1,1.2,2.4,1.8,4,1.8
			c0.8,0,1.5-0.2,2.2-0.5c0.7-0.3,1.3-0.8,1.8-1.3c0.5-0.6,0.9-1.3,1.2-2.1s0.4-1.7,0.4-2.7c0-2-0.5-3.6-1.6-4.8
			c-1.1-1.2-2.4-1.8-4-1.8c-0.8,0-1.5,0.2-2.2,0.5c-0.7,0.3-1.3,0.8-1.8,1.3c-0.5,0.6-0.9,1.3-1.2,2.1
			C460.8,71.2,460.6,72.1,460.6,73.1z"/>
		<path class="st33" d="M507.8,85.7h-7.7V71.5c0-1.7-0.3-2.9-0.9-3.6c-0.6-0.8-1.4-1.1-2.5-1.1c-0.5,0-1.1,0.1-1.6,0.3
			c-0.5,0.2-1.1,0.5-1.6,0.9c-0.5,0.4-1,0.9-1.4,1.4c-0.4,0.5-0.7,1.1-0.9,1.8v14.4h-7.7V60.5h6.9v4.2c0.9-1.5,2.2-2.7,3.9-3.5
			c1.7-0.8,3.6-1.2,5.9-1.2c1.6,0,2.9,0.3,3.9,0.9c1,0.6,1.8,1.4,2.3,2.3c0.5,0.9,0.9,2,1.1,3.1c0.2,1.1,0.3,2.2,0.3,3.3V85.7z"/>
	</g>
</g>
</svg>
